<svg width="1440" height="1024" viewBox="0 0 1440 1024" fill="none" xmlns="http://www.w3.org/2000/svg">
<path d="M0 0H1440V1024H0V0Z" fill="#1E1F21"/>
<path d="M363 650C363 560.53 435.53 488 525 488C614.47 488 687 560.53 687 650C687 739.47 614.47 812 525 812C435.53 812 363 739.47 363 650Z" fill="#0C8900"/>
<path d="M-103 851C-103 686.971 29.9714 554 194 554C358.029 554 491 686.971 491 851C491 1015.03 358.029 1148 194 1148C29.9714 1148 -103 1015.03 -103 851Z" fill="#2BC20E"/>
<path d="M509 28C509 -113.937 624.063 -229 766 -229C907.937 -229 1023 -113.937 1023 28C1023 169.937 907.937 285 766 285C624.063 285 509 169.937 509 28Z" fill="#2BC20E"/>
<path d="M651 779.5C651 506.395 872.395 285 1145.5 285C1418.6 285 1640 506.395 1640 779.5C1640 1052.6 1418.6 1274 1145.5 1274C872.395 1274 651 1052.6 651 779.5Z" fill="#39FF13"/>
<path d="M85 364.5C85 334.4 109.4 310 139.5 310C169.6 310 194 334.4 194 364.5C194 394.6 169.6 419 139.5 419C109.4 419 85 394.6 85 364.5Z" fill="#39FF13"/>
<path d="M1034 263C1034 173.53 1106.53 101 1196 101C1285.47 101 1358 173.53 1358 263C1358 352.47 1285.47 425 1196 425C1106.53 425 1034 352.47 1034 263Z" fill="#0C8900"/>
<path d="M-263 750C-263 641.752 -175.248 554 -67 554C41.2478 554 129 641.752 129 750C129 858.248 41.2478 946 -67 946C-175.248 946 -263 858.248 -263 750Z" fill="#9CFF00"/>
<path d="M1146 1024C1146 946.68 1208.68 884 1286 884C1363.32 884 1426 946.68 1426 1024C1426 1101.32 1363.32 1164 1286 1164C1208.68 1164 1146 1101.32 1146 1024Z" fill="#9CFF00"/>
<path d="M217 108.5C217 56.3091 259.309 14 311.5 14C363.691 14 406 56.3091 406 108.5C406 160.691 363.691 203 311.5 203C259.309 203 217 160.691 217 108.5Z" fill="#9CFF00"/>
</svg>
