<?xml version="1.0" encoding="utf-8"?>
<!-- Generator: Adobe Illustrator 24.0.2, SVG Export Plug-In . SVG Version: 6.00 Build 0)  -->
<svg version="1.1" id="Capa_1" xmlns="http://www.w3.org/2000/svg" xmlns:xlink="http://www.w3.org/1999/xlink" x="0px" y="0px"
	 viewBox="0 0 1000 1000" style="enable-background:new 0 0 1000 1000;" xml:space="preserve">
<style type="text/css">
	.st0{fill:none;stroke:#3C3C3B;stroke-width:2;stroke-linecap:round;stroke-linejoin:round;stroke-miterlimit:10;}
	.st1{fill:#47AE4C;}
	.st2{fill:none;stroke:#013333;stroke-width:9.9058;stroke-miterlimit:10;}
	.st3{fill:#013333;}
	.st4{fill:none;stroke:#013333;stroke-width:39.6231;stroke-linecap:round;stroke-linejoin:round;stroke-miterlimit:10;}
	.st5{fill:#49AE4C;}
</style>
<path class="st0" d="M229,411.52"/>
<path class="st1" d="M852.2,642.45c0,0-1.19-33.93-5-128.75c-3.81-94.82-49.37-111.57-49.37-111.57v79.71l-11.61-17.41l-16.92,44.16
	l2.66,52.72l-2.66,73.1l-28.84,39.84l-37.14,29.99l-63.42,27.04l-51.61,11.13l-89.21,4.17l-64.74-7.96l-65.32-18.25l-9.23-0.95
	l6.39,17.2l2.84,2.49c23.79,32.99,65.89,50.07,65.89,50.07c50.71,21.24,130.46,19.44,197.94,12.25l77.96,101.49
	c8.12,10.57,24.98,5.94,26.56-7.3l13.47-112.95c4.02-0.86,6.27-1.38,6.27-1.38C860.52,763.91,852.2,642.45,852.2,642.45z"/>
<g>
	<g>
		<path class="st2" d="M770.46,380.46l0,221.1c0,190.78-481.42,197.92-504.6,0V360.84c0,0,0-139.97,208.62-130.16
			S760.65,290.41,770.46,380.46z"/>
		<path class="st3" d="M374.2,720.74c-127.91-3.84-216.21-211.9-164.51-338.5s173.37-144.5,173.37-144.5l-63.67,27.89l-39.87,42.02
			l-13.67,40.12v40.12v210.7l3.96,22.61l28.68,49.92l48.35,36.79L374.2,720.74z"/>
		<path class="st3" d="M288.87,685.39c0,0,93.78,78.42,237.32,65.94l-65.97-8.92l-19.84-1.56l-32.85-6.69l-41.37-17.61l-28.08-13.15
			l-41.01-31.65L288.87,685.39z"/>
	</g>
	<path class="st3" d="M219.4,361.22c0,0,62.8-126.08,184.35-132.32s-6.1,5.84-6.1,5.84l-62.84,18.53l-41.6,38.04l-30.01,35.66
		L219.4,361.22z"/>
</g>
<path class="st4" d="M337.82,369.76c0,0,193.11-109.63,363.7,16.05"/>
<path class="st4" d="M337.82,442.27c0,0,193.72-129.57,359.54,4.75"/>
<path class="st4" d="M341.64,505.27c0,0,189-142.18,355.72,24.3"/>
<g>
	<path class="st5" d="M331.47,477.4l1.59-1.1l1.42-0.95l2.79-1.81c1.85-1.17,3.7-2.31,5.55-3.42c3.7-2.23,7.4-4.38,11.14-6.45
		c7.48-4.13,15.07-7.97,22.8-11.52c15.41-7.17,31.29-13.26,47.55-18.26c8.13-2.49,16.37-4.66,24.69-6.52
		c8.32-1.88,16.72-3.43,25.19-4.6c16.94-2.28,34.13-3.28,51.32-2.47c34.37,1.47,68.54,10.04,99.64,24.75
		c3.85,1.9,7.77,3.7,11.53,5.78c1.89,1.02,3.81,1.99,5.67,3.06l5.57,3.22c1.87,1.05,3.69,2.19,5.51,3.32
		c1.82,1.13,3.66,2.24,5.46,3.4l5.35,3.56l2.67,1.78l2.61,1.87c14,9.85,27.14,20.8,39.61,32.38c6.75,6.27,7.14,16.82,0.87,23.57
		c-6.27,6.75-16.82,7.14-23.57,0.87c-0.28-0.26-0.55-0.53-0.81-0.8l-0.05-0.05c-21.15-22.63-45.77-41.89-73.18-55.54
		c-13.72-6.75-28.06-12.2-42.85-15.97c-7.4-1.85-14.88-3.4-22.44-4.51c-7.56-1.1-15.18-1.78-22.83-2.1
		c-30.6-1.25-61.52,3.73-90.89,13.55c-7.35,2.43-14.62,5.16-21.76,8.18c-7.15,3.01-14.2,6.26-21.09,9.83
		c-6.89,3.55-13.65,7.35-20.23,11.38c-3.28,2.01-6.53,4.07-9.68,6.21c-1.57,1.07-3.13,2.16-4.64,3.26l-2.23,1.64l-1.07,0.81
		c-0.31,0.24-0.74,0.57-0.88,0.69c-7.02,6.19-17.74,5.52-23.93-1.51c-6.19-7.02-5.52-17.74,1.51-23.93
		c0.49-0.44,1.01-0.84,1.53-1.21L331.47,477.4z"/>
</g>
<path class="st4" d="M337.82,613.81c0,0,192.81,105.43,344.94,0.39"/>
<path class="st1" d="M818.3,407.08c-5.44-42.81-33.78-43.97-33.78-43.97l-17.83-85.29c0,0-10.48-51.26-22.07-73.33
	c-11.59-22.07-37.67-43.91-37.67-43.91s-12.26-10.03-36.33-24.52s-73.77-27.86-73.77-27.86c-21.84-7.8-88.26-16.27-134.4-16.94
	c-46.14-0.67-80.91,10.03-98.51,13.34c-17.61,3.31-57.06,19.87-64.19,23.88c-7.13,4.01-21.62,13.82-38.56,28.08
	c-16.94,14.26-26.75,37.22-26.75,37.22l-14.93,34.55l-10.03,44.13l-6.24,20.06l-13.08,52.45l-5.76,29.33l-0.78,3.95l-0.64,0.75
	l-0.57,0.66c1.2,2.92-0.21,7.01-4.3,7.04c-0.89,0.37-2,0.6-3.71,0.66l-14.93,10.69c0.01,0.41,0.07,0.83-0.06,1.24
	c-0.13,0.93-0.56,1.82-0.97,2.65c-0.24,0.47-0.53,0.91-0.85,1.32c-0.57,0.76-1.15,1.49-1.78,2.2c-0.35,0.4-0.7,0.8-1.03,1.21
	c-0.24,0.24-0.57,0.34-0.86,0.5c0.02,1.3-0.41,2.6-1.28,3.56l-4.92,34.07c1.58,1.19,2.26,3.25,1.86,5.28
	c-0.59,2.96-0.52,6-0.75,9.01c-0.24,3.12-0.84,6.21-1.17,9.32c-0.07,0.66-0.02,1.31-0.05,1.97c0.24,0.56,0.33,1.16,0.38,1.77
	c1.22,1.69,1.25,4.11,0.15,5.87c0.32,2.31,0.7,4.62,1.07,6.94c0.64,0.61,1.18,1.31,1.38,2.16c0.67,2.8,1.57,4.29,2.91,7.07
	c1.48,3.07,2.46,5.95,2.85,9.34c0.16,1.34,0.23,2.68,0.33,4.02c0.05,0.71,0.09,1.43,0.2,2.13c-0.05-0.44-0.03-0.36,0.07,0.25
	c0.07,0.35,0.15,0.69,0.24,1.03c0.09,0.32,0.19,0.64,0.3,0.95c0.04,0.07,0.04,0.08,0.11,0.21c0.34,0.56,0.68,1.09,1.06,1.62
	c-0.28-0.35-0.24-0.3,0.13,0.16c0.36,0.46,0.72,0.93,1.08,1.39c0.4,0.53,0.79,1.06,1.16,1.62c0.19,0.29,0.22,0.61,0.33,0.91
	l18.56,16.22l11.14,9.73l23.18-3.27l16.34-8.32l8.91-46.06l-1.49-68.35l-21.99-31.8l-24.96-0.59l26.75-104.31l5.31-26.27
	l11.06-35.35l12.44-25.46l16.31-22.45l29.8-24.84l40.12-19.75l60.88-17.64l56.17-4.71h52.01l41.11,3.52l44.78,7.43l66.2,22.29
	l46.42,27.93l41.95,60.74l14.81,43.57l18.42,99.85v137.05h13.9l23.35-19.01C812.85,487.98,823.75,449.88,818.3,407.08z"/>
<path class="st1" d="M182.99,379.01"/>
<polygon class="st1" points="176.19,536.29 185.09,542.08 192.53,543.58 194.67,530.62 "/>
<g>
	<path class="st3" d="M797.72,367.38c3.33,2.23,6.42,4.89,9.05,7.97c2.66,3.05,4.9,6.47,6.76,10.07c1.87,3.6,3.33,7.41,4.48,11.31
		c0.57,1.95,1.05,3.93,1.44,5.93c0.39,2.02,0.7,3.98,0.87,6.15l-0.03-0.28c0.15,0.86,0.19,1.42,0.27,2.11l0.18,1.97
		c0.11,1.31,0.19,2.61,0.27,3.9c0.16,2.6,0.27,5.19,0.37,7.77c0.19,5.18,0.32,10.35,0.41,15.52c0.09,5.17,0.14,10.34,0.18,15.5
		l0.03,7.75c0.01,2.63-0.06,5.37-0.31,8.07c-0.49,5.42-1.6,10.91-3.7,16.18c-2.09,5.26-5.24,10.29-9.41,14.43
		c-4.15,4.16-9.24,7.35-14.65,9.48c-2.71,1.07-5.5,1.88-8.34,2.46c-1.42,0.29-2.85,0.52-4.31,0.68c-0.73,0.08-1.46,0.15-2.21,0.2
		l-1.14,0.06l-0.6,0.01c-0.23,0-0.36,0.01-0.72-0.01l0,0c-3.25-0.16-5.75-2.93-5.59-6.18l0-0.02c1.86-39.23,2.36-78.57-0.19-117.68
		c-0.6-9.77-1.47-19.52-2.54-29.22c-0.54-4.85-1.16-9.68-1.88-14.47c-0.37-2.37-0.74-4.82-1.21-7l-1.57-7.24l-12.55-57.91
		l-3.14-14.48l-0.78-3.62l-0.1-0.45l-0.09-0.48l-0.16-0.8l-0.37-1.68c-0.53-2.26-1.16-4.54-1.86-6.81
		c-2.8-9.07-6.54-17.93-10.99-26.41c-8.91-16.96-20.74-32.4-34.71-45.58c-13.96-13.21-30.09-24.11-47.4-32.63
		c-8.65-4.28-17.61-7.96-26.75-11.14c-9.19-3.15-18.52-5.93-27.98-8.28c-37.84-9.42-77.08-13.18-116.21-13.43
		c-19.58-0.13-39.19,0.67-58.69,2.48c-19.49,1.79-38.97,4.39-57.98,8.7c-4.75,1.09-9.46,2.28-14.09,3.68
		c-4.62,1.4-9.2,2.96-13.42,4.93c-9.02,4.34-18.23,7.89-27,12.11c-8.79,4.19-17.27,8.92-25.13,14.58
		c-7.87,5.63-15.08,12.17-21.5,19.45c-12.9,14.56-22.4,31.97-29.56,50.21c-7.17,18.28-11.91,37.5-15.43,56.89
		c-0.02,0.11-0.13,0.19-0.24,0.17c-0.11-0.02-0.18-0.12-0.17-0.23c2.64-19.56,6.79-39.01,13.36-57.75
		c1.65-4.68,3.43-9.32,5.42-13.88c2-4.56,4.18-9.04,6.55-13.43c4.75-8.77,10.27-17.17,16.71-24.86c6.42-7.71,13.72-14.71,21.74-20.8
		c8-6.11,16.68-11.28,25.62-15.74c8.93-4.52,18.09-8.26,26.77-12.66c4.68-2.3,9.44-4.01,14.23-5.57c4.79-1.55,9.62-2.88,14.47-4.09
		c19.4-4.79,39.08-7.88,58.84-10.01c19.77-2.06,39.64-3.12,59.52-3.23c19.88-0.11,39.78,0.93,59.59,3.01
		c19.8,2.12,39.52,5.4,58.92,10.24c9.7,2.39,19.3,5.23,28.79,8.46c9.5,3.29,18.84,7.1,27.88,11.56c18.1,8.86,35.05,20.3,49.86,34.12
		c14.81,13.82,27.41,30.06,36.96,47.99c4.78,8.97,8.81,18.33,11.88,28.11c0.76,2.45,1.46,4.92,2.08,7.46l0.44,1.93l0.21,1.01
		l0.09,0.43l0.1,0.45l0.8,3.61l3.21,14.43l12.86,57.73l1.61,7.22c0.58,2.64,0.94,5.07,1.36,7.57c0.77,4.97,1.44,9.92,2.02,14.87
		c1.15,9.91,2.09,19.82,2.76,29.74c2.82,39.67,2.54,79.39,0.89,119l-5.59-6.2l0,0c-0.04,0,0.15,0.02,0.24,0.02l0.37,0.02l0.79,0.02
		c0.54,0,1.09-0.01,1.65-0.03c1.11-0.05,2.24-0.15,3.35-0.3c2.24-0.3,4.46-0.79,6.6-1.47c4.29-1.35,8.27-3.5,11.62-6.42
		c3.37-2.91,6.09-6.61,8.1-10.8c2.01-4.19,3.32-8.83,4.07-13.64c0.38-2.42,0.62-4.82,0.77-7.34l0.44-7.71
		c0.28-5.14,0.54-10.28,0.76-15.42c0.23-5.14,0.41-10.28,0.54-15.41c0.06-2.56,0.11-5.13,0.11-7.69c0-1.28,0-2.55-0.03-3.82
		l-0.05-1.89l-0.05-0.93l-0.06-0.81l-0.03-0.28c-0.03-1.8-0.2-3.79-0.46-5.69c-0.26-1.92-0.6-3.83-1.02-5.72
		c-0.86-3.78-2.03-7.51-3.61-11.07c-1.57-3.56-3.51-6.97-5.89-10.06c-2.34-3.12-5.17-5.88-8.3-8.27l-0.01-0.01
		c-0.2-0.15-0.24-0.43-0.08-0.63C797.26,367.29,797.53,367.25,797.72,367.38z"/>
</g>
<g>
	<path class="st3" d="M796.98,376.67c1.87,4.05,3.23,8.2,4.44,12.43c1.19,4.23,2.11,8.53,2.83,12.87c0.67,4.35,1.21,8.72,1.45,13.12
		c0.1,2.19,0.19,4.43,0.2,6.59l0.03,6.48l0.01,6.49l-0.11,6.5c-0.06,4.33-0.26,8.67-0.51,13.02c-0.26,4.34-0.64,8.69-1.28,13.05
		c-0.32,2.18-0.7,4.36-1.23,6.53c-0.12,0.54-0.3,1.09-0.45,1.63c-0.16,0.54-0.28,1.08-0.52,1.63c-0.22,0.54-0.42,1.08-0.65,1.62
		l-0.89,1.61c-0.33,0.59-1.07,0.81-1.66,0.48c-0.53-0.29-0.76-0.92-0.56-1.48l0.09-0.25l0.47-1.33l0.32-1.47
		c0.2-0.98,0.33-2.03,0.46-3.05c0.2-2.08,0.35-4.19,0.42-6.31c0.07-2.12,0.11-4.25,0.14-6.39l-0.01-6.42
		c-0.02-4.28-0.12-8.58-0.18-12.88l-0.24-12.91l-0.11-6.47c-0.05-2.16-0.08-4.24-0.16-6.36c-0.16-4.22-0.44-8.45-0.87-12.66
		c-0.79-8.43-2.11-16.89-3.76-25.24l-0.01-0.05c-0.13-0.67,0.31-1.33,0.98-1.46C796.19,375.86,796.75,376.16,796.98,376.67z"/>
</g>
<polygon class="st1" points="198.11,309.34 185.82,352.14 182.86,371.7 182.86,383.89 186.59,380.43 199.07,332.73 "/>
<g>
	<path class="st3" d="M200.66,348.73c-1.29,6.27-2.73,12.45-4.09,18.6c-0.68,3.07-1.27,6.15-1.9,9.17c-0.6,3-1.15,6.08-1.33,8.75
		l0,0l-3.47-1.8c1.83-2.15,3.8-3.85,5.99-5.5c2.18-1.61,4.55-3.02,7.14-4.19c2.58-1.16,5.38-2.09,8.4-2.64
		c3.02-0.54,6.29-0.65,9.64-0.18c6.76,0.78,13.61,4.74,17.94,9.88c1.07,1.28,2.16,2.59,2.97,3.96l1.29,2.05l1.06,2.07
		c0.34,0.69,0.72,1.39,1.02,2.08l0.85,2.07c0.27,0.69,0.58,1.39,0.82,2.08l0.67,2.06c1.73,5.5,2.91,10.91,3.53,16.2l0.27,1.99
		l0.22,1.82l0.43,3.6l0.86,7.21l1.65,14.45c0.55,4.82,1.02,9.65,1.44,14.49c0.86,9.68,1.37,19.39,1.47,29.21
		c0.03,2.46,0.03,4.92-0.01,7.43c-0.02,1.28-0.03,2.45-0.1,3.98c-0.09,1.76-0.25,3.25-0.5,4.78c-0.98,5.98-3.05,11.6-6.06,16.72
		c-1.53,2.55-3.29,4.95-5.22,7.17c-1.94,2.22-4.09,4.21-6.31,6.03c-4.51,3.6-9.45,6.3-14.43,8.29c-4.98,2.01-10.07,3.23-15.11,3.85
		c-1.25,0.22-2.52,0.27-3.77,0.39c-0.63,0.05-1.25,0.12-1.87,0.15l-1.87,0.05c-2.48,0.15-4.96,0.04-7.41,0.01
		c-0.69-0.01-1.23-0.57-1.22-1.26c0.01-0.59,0.42-1.07,0.97-1.19l0.08-0.02c2.34-0.53,4.67-0.97,6.94-1.67l1.7-0.5
		c0.56-0.18,1.11-0.39,1.66-0.59c1.1-0.41,2.21-0.75,3.27-1.24c4.28-1.79,8.26-4.04,11.66-6.8c3.39-2.77,6.11-6.1,8.05-9.66
		c1.91-3.6,3.11-7.36,3.83-11.13c0.73-3.75,1.1-7.55,1.16-11.15c0-0.87,0.01-1.78-0.05-2.43l-0.2-3.24l-0.47-7.01
		c-0.65-9.43-1.27-18.95-1.69-28.49c-0.48-9.54-0.74-19.12-1.22-28.7l-0.35-7.19l-0.18-3.59l-0.09-1.77l-0.13-1.6
		c-0.28-4.3-0.91-8.41-1.96-12.12c-1.03-3.72-2.6-6.89-4.25-9.27c-0.18-0.34-0.43-0.55-0.63-0.84c-0.21-0.26-0.39-0.59-0.62-0.82
		c-0.23-0.23-0.45-0.47-0.66-0.73c-0.2-0.29-0.47-0.43-0.68-0.69c-0.92-0.91-1.95-1.76-3.28-2.46c-1.32-0.7-2.88-1.3-4.67-1.72
		c-1.8-0.39-3.79-0.64-5.9-0.72c-4.21-0.2-8.94,0.26-13.65,0.91l-1.63,0.22c-0.91,0.12-1.75-0.51-1.87-1.42
		c-0.03-0.21-0.02-0.41,0.03-0.6l0,0c-0.06-0.88-0.15-1.83-0.11-2.69c0.06-0.84,0.07-1.73,0.2-2.54c0.2-1.66,0.52-3.27,0.88-4.86
		c0.74-3.17,1.75-6.24,2.82-9.26c2.18-6.04,4.7-11.92,7.72-17.58c0.05-0.09,0.16-0.12,0.25-0.08
		C200.64,348.57,200.67,348.65,200.66,348.73z"/>
</g>
<g>
	<path class="st3" d="M243.96,177.47c-4.16,6.86-7.87,14.01-11.36,21.24c-3.45,7.25-6.53,14.66-9.32,22.17
		c-2.84,7.49-5.03,15.2-6.97,22.94c-0.47,1.94-0.93,3.88-1.44,5.81c-0.46,1.94-0.79,3.91-1.21,5.86l-0.6,2.94
		c-0.18,0.98-0.28,1.97-0.41,2.96l-0.75,5.94l-0.01,0.07c-0.01,0.06-0.02,0.13-0.04,0.18l-17.51,58.59l-4.38,14.64
		c-1.45,4.83-2.64,9.76-3.64,14.72c-0.99,4.96-1.75,9.96-2.18,14.98c-0.42,5.02-0.51,10.07,0.07,15.02
		c0.08,0.65-0.38,1.24-1.02,1.32l-0.04,0.01c-2.96,0.4-6.02,1.31-8.86,2.49c-2.86,1.19-5.56,2.74-7.99,4.64
		c-2.42,1.9-4.58,4.12-6.34,6.65c-1.69,2.56-3.1,5.33-4.16,8.28c-0.31,0.72-0.52,1.48-0.77,2.22c-0.23,0.75-0.5,1.48-0.71,2.24
		c-0.4,1.52-0.85,3.03-1.16,4.58c-0.73,3.07-1.23,6.2-1.7,9.33c-0.85,6.27-1.38,12.63-1.45,18.93l0,0.09l0,0.01
		c-0.7,9.82-0.58,19.8,0.2,29.65c0.82,9.86,2.39,19.68,5.25,29.1c1.44,4.7,3.21,9.31,5.46,13.65c2.25,4.33,4.96,8.44,8.3,11.96
		c3.32,3.52,7.24,6.47,11.63,8.46c2.19,1,4.47,1.8,6.82,2.36c2.35,0.54,4.75,0.88,7.17,1.04l0.02,0c0.68,0.05,1.2,0.64,1.15,1.32
		s-0.64,1.2-1.32,1.15l0,0c-2.55-0.18-5.09-0.54-7.59-1.12c-2.5-0.6-4.93-1.46-7.27-2.53c-4.69-2.13-8.87-5.3-12.36-9.03
		c-3.52-3.72-6.33-8.03-8.66-12.52c-2.32-4.51-4.12-9.24-5.59-14.06c-2.92-9.65-4.45-19.62-5.31-29.6c-0.8-10-0.94-20-0.23-30.04
		l0,0.1c0.08-6.47,0.6-12.87,1.46-19.26c0.48-3.19,0.98-6.37,1.73-9.52c0.32-1.58,0.78-3.14,1.19-4.71
		c0.21-0.78,0.49-1.55,0.73-2.33c0.26-0.77,0.48-1.55,0.8-2.31c1.1-3.07,2.59-6.03,4.42-8.8c1.89-2.73,4.22-5.13,6.82-7.17
		c2.6-2.04,5.49-3.69,8.53-4.96c3.06-1.26,6.16-2.21,9.54-2.67l-1.06,1.33c-0.62-5.18-0.52-10.37-0.1-15.5
		c0.44-5.13,1.21-10.22,2.21-15.25c1.02-5.03,2.21-10.01,3.69-14.95l4.37-14.65l17.46-58.59l-0.05,0.25l0.63-6.07l0.31-3.04
		l0.46-3.02c0.32-2.01,0.58-4.03,0.96-6.03c0.41-1.99,0.85-3.98,1.3-5.96c2.02-7.88,4.52-15.63,7.53-23.15
		c2.96-7.55,6.36-14.92,10.1-22.1l2.87-5.35c1.01-1.75,1.99-3.52,3.04-5.25c2.06-3.48,4.21-6.9,6.53-10.23
		c0.15-0.21,0.44-0.27,0.66-0.12c0.21,0.14,0.26,0.42,0.13,0.63L243.96,177.47z"/>
</g>
<g>
	<path class="st3" d="M178.85,511.17c0.27-7.75,0.69-15.46,1.1-23.13c0.41-7.67,0.78-15.32,1.02-22.94
		c0.2-7.63,0.31-15.22,0.35-22.81c0.03-3.8-0.05-7.61-0.34-11.41c-0.3-3.79-0.82-7.59-1.82-11.27l0.04,0.1
		c-0.52-1.25-1.31-2.52-2.26-3.54c-0.95-1.02-2.17-1.83-3.55-1.9c-0.68-0.03-1.37,0.14-2,0.46c-0.62,0.33-1.17,0.8-1.66,1.33
		c-0.95,1.08-1.63,2.41-1.99,3.85l0,0l0.14-0.36c-0.64,4.13-0.99,8.44-1.26,12.68c-0.26,4.26-0.4,8.54-0.48,12.81
		c-0.11,4.27,0.15,8.57,0.28,12.84c0.19,4.28,0,8.53-0.06,12.8c-0.1,4.26-0.19,8.53-0.43,12.79c-0.25,4.26-0.48,8.53-0.83,12.8
		c-0.28,4.27-0.61,8.55-1.04,12.83c-0.38,4.28-0.83,8.57-1.49,12.87l0,0.02c-0.11,0.68-0.75,1.15-1.43,1.05
		c-0.54-0.08-0.95-0.51-1.04-1.02c-0.77-4.28-1.31-8.58-1.8-12.88c-0.23-2.15-0.41-4.3-0.58-6.46c-0.19-2.15-0.33-4.31-0.45-6.46
		c-0.12-2.16-0.2-4.31-0.27-6.47c-0.07-2.16-0.17-4.32-0.16-6.48c-0.01-4.32,0.08-8.64,0.38-12.95c0.23-4.31,0.55-8.63,1.2-12.92
		c0.7-4.29,1.54-8.56,2.18-12.84c0.65-4.28,1.4-8.54,2.17-12.8c0.4-2.13,0.81-4.25,1.26-6.37c0.44-2.13,0.88-4.22,1.45-6.38
		l0.03-0.12c0.02-0.09,0.06-0.17,0.11-0.25l0,0c1.2-1.11,2.25-2.27,3.47-3.26c0.61-0.49,1.26-0.94,1.97-1.3
		c0.72-0.34,1.51-0.58,2.32-0.61c1.67-0.09,3.22,0.75,4.43,1.75c1.23,1.04,2.22,2.23,3.11,3.62l0.04,0.1
		c1.61,3.61,2.92,7.37,4.04,11.18c1.11,3.82,2.02,7.71,2.66,11.62c1.33,7.84,1.54,15.76,1.24,23.61
		c-0.29,7.85-1.09,15.66-2.32,23.39c-0.62,3.86-1.34,7.71-2.22,11.52c-0.87,3.82-1.83,7.6-3.08,11.36
		c-0.22,0.66-0.93,1.01-1.58,0.79c-0.54-0.18-0.87-0.69-0.86-1.23L178.85,511.17z"/>
</g>
<g>
	<path class="st3" d="M159.55,489.09l0.87,26.34c0.03,0.87-0.65,1.59-1.52,1.62c-0.73,0.02-1.36-0.45-1.56-1.12l-7.58-25.24
		c-0.79-2.64,0.71-5.43,3.35-6.22c2.64-0.79,5.43,0.71,6.22,3.35C159.47,488.23,159.53,488.68,159.55,489.09z"/>
</g>
<g>
	<path class="st3" d="M209.68,406.32c0.3,0.11,0.69,0.27,0.9,0.37l0.38,0.18c0.23,0.11,0.54,0.28,0.69,0.37
		c0.33,0.19,0.67,0.4,0.98,0.61c0.25,0.18,0.51,0.36,0.75,0.55l0.37,0.29l0.3,0.26c0.85,0.72,1.45,1.39,2.05,2.07
		c0.51,0.63,1.06,1.33,1.44,1.93l0.61,0.94c0.19,0.31,0.34,0.6,0.51,0.9c1.29,2.39,2.11,4.63,2.7,6.72
		c1.24,4.22,1.66,8.1,1.96,11.87l0.11,1.42c0.03,0.43,0.03,0.83,0.04,1.24l0.07,2.46l0.15,4.93c0.11,3.29,0.15,6.57,0.21,9.86
		c0.07,6.57,0.1,13.15,0.04,19.73c-0.02,3.29-0.06,6.58-0.13,9.86l-0.09,4.93c-0.06,1.83-0.16,3.67-0.31,5.52
		c-0.61,7.38-2.18,14.91-5.09,22.1c-0.72,1.81-1.53,3.55-2.43,5.28c-0.9,1.73-1.86,3.46-2.99,5.16c-2.27,3.38-4.99,6.78-8.79,9.64
		c-1.88,1.42-4.02,2.71-6.37,3.64c-2.36,0.94-4.92,1.51-7.42,1.66c-2.51,0.15-4.97-0.1-7.2-0.65c-1.15-0.23-2.17-0.62-3.24-0.95
		c-0.99-0.41-2.03-0.77-2.94-1.25c-3.73-1.86-6.82-4.18-9.54-6.64c-2.71-2.49-5.08-5.13-7.21-7.91c-1.68-2.2-1.27-5.34,0.93-7.02
		c1.7-1.3,3.96-1.35,5.68-0.29l0.23,0.14c1.34,0.83,2.6,1.72,3.93,2.48c0.64,0.41,1.29,0.8,1.95,1.15c0.65,0.37,1.3,0.74,1.95,1.05
		c2.58,1.35,5.17,2.4,7.53,2.92c0.59,0.18,1.15,0.2,1.7,0.33c0.53,0.02,1.08,0.13,1.56,0.08c1,0.02,1.84-0.15,2.58-0.41
		c1.46-0.46,2.56-1.29,3.82-2.66c2.5-2.7,4.83-7.71,6.32-12.88c1.5-5.14,2.21-10.63,2.38-16.31c0.04-1.42,0.03-2.85,0-4.29
		l-0.1-4.88c-0.07-3.26-0.13-6.51-0.15-9.77c-0.08-6.51-0.06-13.02,0-19.53c0.05-3.26,0.08-6.51,0.19-9.77l0.26-9.58
		c0.08-2.77-0.1-5.44-0.41-7.58c-0.13-1.11-0.39-1.97-0.52-2.53l-0.04-0.2c-0.01-0.03-0.02-0.07-0.02-0.11
		c-0.01-0.12,0.02-0.06,0.06-0.1c0.07,0.06,0.15,0.09,0.39,0.27l0.08,0.05l0.13,0.1c0.09,0.06,0.18,0.12,0.27,0.17
		c0.14,0.1,0.31,0.19,0.47,0.28l0.42,0.22l0.24,0.11c0.16,0.07,0.5,0.22,0.76,0.31c-5.19-1.91-7.84-7.67-5.93-12.85
		C198.74,407.06,204.49,404.41,209.68,406.32z"/>
</g>
<g>
	<path class="st5" d="M334.55,340.22l3.1-1.88l2.85-1.65c1.89-1.08,3.76-2.11,5.64-3.14c3.77-2.02,7.55-3.94,11.35-5.8
		c7.6-3.72,15.33-7.08,23.12-10.27c15.63-6.28,31.63-11.63,47.98-15.9c32.66-8.59,66.68-13.17,100.97-12.57
		c17.13,0.27,34.31,1.89,51.28,4.87c8.47,1.56,16.91,3.34,25.24,5.58l3.13,0.81l3.11,0.89c2.07,0.61,4.15,1.17,6.21,1.81
		c4.11,1.32,8.21,2.64,12.25,4.14c4.07,1.41,8.07,3.03,12.08,4.59c2,0.8,3.97,1.67,5.95,2.5l2.97,1.26
		c0.99,0.43,1.95,0.91,2.93,1.36l5.84,2.74l5.76,2.9l2.87,1.46l2.83,1.53l5.65,3.08c14.87,8.55,29.04,18.18,42.12,29.01
		c8.44,6.99,9.62,19.5,2.63,27.94c-6.45,7.79-17.59,9.39-25.91,4.11l-0.22-0.14c-12.73-8.07-25.68-15.54-39.09-21.93l-5.04-2.35
		l-2.52-1.17l-2.55-1.1l-5.1-2.19l-5.16-2.04c-1.71-0.7-3.44-1.34-5.18-1.98c-1.73-0.64-3.45-1.31-5.19-1.92
		c-3.5-1.18-6.97-2.42-10.51-3.47c-14.09-4.34-28.45-7.8-43.05-10c-7.28-1.2-14.63-2.02-21.99-2.67c-7.37-0.69-14.77-1.01-22.2-1.16
		c-29.7-0.57-59.67,2.78-89.17,9.24c-14.73,3.28-29.39,7.21-43.79,11.97c-7.22,2.31-14.35,4.9-21.4,7.58
		c-3.53,1.34-7.02,2.75-10.46,4.19c-1.72,0.71-3.44,1.44-5.11,2.17l-4.65,2.07l-1.24,0.55c-9.99,4.44-21.69-0.05-26.13-10.04
		C322.64,355.97,326.15,345.31,334.55,340.22z"/>
</g>
<g>
	<path class="st5" d="M330.7,408.84l1.59-0.88l1.44-0.77l2.85-1.48c1.89-0.97,3.77-1.9,5.66-2.81c3.77-1.83,7.55-3.57,11.36-5.24
		c7.61-3.35,15.29-6.45,23.05-9.32c15.52-5.76,31.35-10.6,47.44-14.55c32.15-7.89,65.39-12.12,98.8-11.6
		c33.38,0.48,66.92,5.82,98.82,16.48c15.97,5.25,31.45,11.95,46.37,19.66c14.88,7.8,29.13,16.73,42.66,26.59
		c6.94,5.05,8.47,14.78,3.41,21.72s-14.78,8.47-21.72,3.41l-0.07-0.05l-0.07-0.05c-12.27-9.04-25.14-17.21-38.55-24.35
		c-13.45-7.04-27.38-13.17-41.77-18c-28.74-9.79-59.08-14.84-89.63-15.46c-30.57-0.66-61.34,3.04-91.34,10.21
		c-15,3.59-29.82,8.03-44.33,13.31c-7.25,2.63-14.42,5.48-21.47,8.53c-3.52,1.53-7.02,3.11-10.45,4.75c-1.71,0.82-3.42,1.65-5.1,2.5
		l-2.48,1.27l-2.25,1.2l-0.47,0.25c-7.02,3.75-15.75,1.1-19.5-5.91C321.25,421.29,323.83,412.64,330.7,408.84z"/>
</g>
<path class="st3" d="M164.08,508.55c0,0-0.84,4.2,6.46,9.65l-2.77,2.18l-6.6-4.7L164.08,508.55z"/>
<path class="st3" d="M150.57,479.51c0.03,0.65,4.87,10.05,6.63-0.76c2-12.27,1.69,7.55,1.69,7.55l-0.35,6.71l-5.29,2.35l-2.69-10.34
	L150.57,479.51z"/>
</svg>
